<?xml version="1.0" encoding="utf-8"?>
<!-- Generator: Adobe Illustrator 28.1.0, SVG Export Plug-In . SVG Version: 6.00 Build 0)  -->
<svg version="1.1" id="uuid-683bf8d3-55da-4455-ab52-34d02e7be761"
	 xmlns="http://www.w3.org/2000/svg" xmlns:xlink="http://www.w3.org/1999/xlink" x="0px" y="0px" viewBox="0 0 469.5 512"
	 style="enable-background:new 0 0 469.5 512;" xml:space="preserve">
<style type="text/css">
	.st0{fill:#FFFFFF;}
</style>
<path class="st0" d="M469.3,218.7c0-52.8,0-105.7,0-158.5c0-23.3-10.1-41.2-30.3-52.6c-6.4-3.6-14-5.1-21-7.5h-239
	c-0.4,0.2-0.8,0.6-1.3,0.7c-26.7,3.8-50.2,28-49.9,61.7c0.6,86.6,0.2,173.3,0.2,260c0,36.4,25.2,61.6,61.6,61.6
	c72.7,0,145.3-0.5,218,0.2c35.2,0.3,62.8-27.3,61.9-62.1C468.7,287.7,469.4,253.2,469.3,218.7L469.3,218.7z M407.5,352.2
	c-72.5-0.4-145-0.2-217.5-0.2c-19.3,0-29.9-10.7-29.9-30c0-86.6,0-173.3,0-260c0-19.3,10.6-30,29.9-30c72.5,0,145,0.3,217.5-0.2
	c16.2-0.1,30.3,11,30.1,30.2c-0.6,43.3-0.2,86.6-0.2,130s-0.4,86.7,0.2,130C437.8,341.3,423.7,352.3,407.5,352.2z"/>
<path class="st0" d="M367,426.8c-7.9,0.4-14.4,6.7-14.9,14.8c-0.2,3.5,0,7-0.1,10.5c-0.1,16.6-11.4,27.9-28,27.9c-88,0-176,0-264,0
	c-16.6,0-28-11.4-28-28c0-95.2,0-190.3,0-285.5c0-16.4,11.1-27.5,27.6-27.8c4.3-0.1,8.7,0.1,12.9-0.6c8.3-1.4,13.3-8.6,12.6-17.1
	c-0.6-7.7-6.9-13.8-14.9-14.2c-4.5-0.2-9-0.2-13.5,0c-31.3,1-56.6,26.5-56.7,57.7c-0.1,96.5-0.2,193,0,289.5
	c0,18.8,8.2,34,22.9,45.7c8.3,6.6,18,9.7,28,12.2h282c0.9-0.3,1.8-0.8,2.7-1c10.7-2,20.2-6.6,28.4-13.8
	c17.3-15.4,21.7-35.3,19.6-57.2C383,432,375.3,426.4,367,426.8L367,426.8z"/>
</svg>
